<svg xmlns="http://www.w3.org/2000/svg" version="1.1" xmlns:xlink="http://www.w3.org/1999/xlink" xmlns:svgjs="http://svgjs.dev/svgjs" width="1440" height="560" preserveAspectRatio="none" viewBox="0 0 1440 560"><g mask="url(&quot;#SvgjsMask1074&quot;)" fill="none"><rect width="1440" height="560" x="0" y="0" fill="rgba(238, 60, 32, 1)"></rect><path d="M0,495.994C90.928,488.035,146.087,396.041,221.096,344.032C292.819,294.301,385.478,271.253,431.277,196.958C479.288,119.073,476.934,23.142,475.297,-68.337C473.462,-170.913,476.074,-278.294,421.222,-364.991C362.582,-457.673,272.258,-540.08,164.366,-559.778C58.79,-579.054,-44.113,-520.508,-137.102,-466.928C-214.825,-422.145,-267.005,-349.912,-322.364,-279.33C-374.986,-212.237,-430.435,-147.445,-452.314,-65.033C-475.981,24.115,-489.438,122.12,-451.227,206.069C-413.001,290.051,-325.082,335.164,-247.452,385.043C-169.829,434.918,-91.914,504.039,0,495.994" fill="#dd2d11"></path><path d="M1440 1016.327C1527.173 1022.56 1606.795 979.5799999999999 1686.2359999999999 943.15 1777.894 901.1179999999999 1890.786 876.4839999999999 1938.574 787.691 1986.673 698.319 1966.846 584.213 1930.393 489.492 1897.644 404.395 1812.458 357.631 1748.179 292.961 1689.019 233.44099999999997 1648.792 146.73000000000002 1567.813 124.70800000000003 1487.124 102.76499999999999 1410.475 164.67399999999998 1328.042 178.707 1231.067 195.21499999999997 1111.009 145.144 1041.118 214.36700000000002 972.1279999999999 282.697 1016.239 401.043 1006.0640000000001 497.609 996.358 589.722 940.726 686.275 982.692 768.845 1024.607 851.3140000000001 1134.04 865.456 1215.399 909.485 1289.82 949.76 1355.595 1010.2919999999999 1440 1016.327" fill="#f0563e"></path></g><defs><mask id="SvgjsMask1074"><rect width="1440" height="560" fill="#ffffff"></rect></mask></defs></svg>